<svg xmlns="http://www.w3.org/2000/svg" xmlns:xlink="http://www.w3.org/1999/xlink" width="500" zoomAndPan="magnify" viewBox="0 0 375 374.999991" height="500" preserveAspectRatio="xMidYMid meet" version="1.0"><defs><g/><clipPath id="525316b826"><path d="M 52.980469 60.722656 L 322.230469 60.722656 L 322.230469 329.972656 L 52.980469 329.972656 Z M 52.980469 60.722656 " clip-rule="nonzero"/></clipPath><clipPath id="0d90d76857"><path d="M 187.605469 60.722656 C 113.253906 60.722656 52.980469 120.996094 52.980469 195.347656 C 52.980469 269.699219 113.253906 329.972656 187.605469 329.972656 C 261.957031 329.972656 322.230469 269.699219 322.230469 195.347656 C 322.230469 120.996094 261.957031 60.722656 187.605469 60.722656 " clip-rule="nonzero"/></clipPath><clipPath id="69e4bf2d8d"><path d="M 178 129.894531 L 303.8125 129.894531 L 303.8125 255 L 178 255 Z M 178 129.894531 " clip-rule="nonzero"/></clipPath><clipPath id="512b8fb27b"><path d="M 75.394531 129.894531 L 201 129.894531 L 201 255 L 75.394531 255 Z M 75.394531 129.894531 " clip-rule="nonzero"/></clipPath><clipPath id="4f86c4af95"><path d="M 0 45.242188 L 375 45.242188 L 375 120.242188 L 0 120.242188 Z M 0 45.242188 " clip-rule="nonzero"/></clipPath></defs><rect x="-37.5" width="450" fill="#ffffff" y="-37.499999" height="449.999989" fill-opacity="1"/><rect x="-37.5" width="450" fill="#ffffff" y="-37.499999" height="449.999989" fill-opacity="1"/><rect x="-37.5" width="450" fill="#ffffff" y="-37.499999" height="449.999989" fill-opacity="1"/><g clip-path="url(#525316b826)"><g clip-path="url(#0d90d76857)"><path stroke-linecap="butt" transform="matrix(0.750621, 0, 0, 0.750621, 52.981652, 60.72247)" fill="none" stroke-linejoin="miter" d="M 179.349995 0.000247578 C 80.296553 0.000247578 -0.00157666 80.298378 -0.00157666 179.351819 C -0.00157666 278.405261 80.296553 358.703391 179.349995 358.703391 C 278.403437 358.703391 358.701567 278.405261 358.701567 179.351819 C 358.701567 80.298378 278.403437 0.000247578 179.349995 0.000247578 " stroke="#000000" stroke-width="8" stroke-opacity="1" stroke-miterlimit="4"/></g></g><path fill="#ffffff" d="M 180.453125 195.679688 C 180.453125 195.679688 180.648438 206.394531 186.410156 217.699219 C 188.875 222.535156 192.359375 227.484375 197.292969 231.75 L 212.613281 244.234375 C 229.847656 257.480469 251.316406 253.441406 251.316406 253.441406 L 248.882812 247.363281 L 218.90625 221.34375 L 218.675781 221.132812 L 202.574219 208.820312 L 186.890625 196.832031 L 180.453125 195.679688 " fill-opacity="1" fill-rule="nonzero"/><path fill="#231f1f" d="M 182.019531 197.429688 C 182.34375 200.878906 183.519531 208.839844 187.699219 217.039062 C 190.414062 222.375 193.964844 226.957031 198.242188 230.648438 L 213.527344 243.105469 C 223.699219 250.921875 235.429688 252.574219 243.46875 252.574219 C 245.941406 252.574219 247.957031 252.410156 249.28125 252.261719 L 247.667969 248.226562 L 217.753906 222.257812 L 186.292969 198.199219 Z M 243.476562 255.472656 L 243.46875 255.472656 C 234.976562 255.472656 222.582031 253.714844 211.734375 245.382812 L 196.386719 232.867188 C 191.792969 228.90625 188.007812 224.027344 185.117188 218.359375 C 179.277344 206.886719 179.015625 196.15625 179.003906 195.703125 C 179 195.273438 179.183594 194.859375 179.515625 194.578125 C 179.84375 194.296875 180.277344 194.179688 180.710938 194.253906 L 187.152344 195.40625 C 187.375 195.449219 187.585938 195.542969 187.769531 195.6875 L 219.546875 219.988281 C 219.578125 220.003906 219.601562 220.027344 219.628906 220.050781 L 219.859375 220.253906 L 249.832031 246.269531 C 250.007812 246.421875 250.140625 246.613281 250.226562 246.824219 L 252.660156 252.902344 C 252.820312 253.304688 252.792969 253.753906 252.582031 254.136719 C 252.375 254.515625 252.011719 254.78125 251.582031 254.863281 C 251.453125 254.890625 248.316406 255.472656 243.476562 255.472656 " fill-opacity="1" fill-rule="nonzero"/><path fill="#231f1f" d="M 199.941406 158.214844 L 199.535156 158.714844 C 198.132812 160.441406 196.796875 162.171875 195.523438 163.929688 C 194.660156 165.082031 193.835938 166.25 193.03125 167.421875 C 191.636719 169.472656 190.335938 171.535156 189.125 173.597656 C 188.792969 174.179688 188.464844 174.75 188.140625 175.324219 C 187.152344 177.105469 186.234375 178.878906 185.414062 180.667969 C 183.585938 184.554688 182.144531 188.472656 181.164062 192.390625 C 180.875 193.484375 180.648438 194.578125 180.441406 195.667969 L 251.316406 253.441406 C 256.648438 251.507812 261.847656 248.726562 266.824219 245.203125 C 270.136719 242.863281 273.34375 240.191406 276.445312 237.242188 C 278.085938 235.667969 279.699219 234.015625 281.277344 232.289062 C 282.605469 230.832031 283.902344 229.328125 285.171875 227.769531 C 285.304688 227.605469 285.4375 227.445312 285.554688 227.277344 C 285.914062 226.839844 286.253906 226.394531 286.597656 225.957031 C 287.917969 224.246094 289.144531 222.488281 290.296875 220.71875 C 291.40625 218.996094 292.433594 217.242188 293.386719 215.480469 C 295.351562 211.851562 296.964844 208.121094 298.25 204.359375 C 299.597656 200.425781 300.589844 196.460938 301.203125 192.503906 C 301.503906 190.652344 301.710938 188.796875 301.84375 186.953125 C 302.136719 182.824219 302.023438 178.738281 301.511719 174.769531 C 301.265625 172.820312 300.925781 170.914062 300.480469 169.039062 C 298 158.492188 292.507812 149.054688 283.996094 142.113281 C 277.859375 137.101562 270.757812 133.886719 263.207031 132.375 C 260.625 131.859375 257.996094 131.542969 255.332031 131.414062 C 253.5625 131.332031 251.777344 131.34375 249.984375 131.433594 C 249.820312 131.4375 249.660156 131.449219 249.492188 131.457031 C 245.480469 131.683594 241.449219 132.34375 237.433594 133.402344 C 235.648438 133.878906 233.867188 134.433594 232.09375 135.066406 C 228.34375 136.421875 224.636719 138.125 221.046875 140.1875 C 219.386719 141.128906 217.753906 142.152344 216.15625 143.253906 C 215.808594 143.480469 215.460938 143.71875 215.132812 143.972656 C 212.984375 145.480469 210.90625 147.128906 208.890625 148.910156 C 208.097656 149.59375 207.328125 150.304688 206.574219 151.035156 C 205.050781 152.480469 203.582031 154.007812 202.152344 155.613281 C 201.398438 156.460938 200.664062 157.328125 199.941406 158.214844 " fill-opacity="1" fill-rule="nonzero"/><g clip-path="url(#69e4bf2d8d)"><path fill="#231f1f" d="M 182.027344 195.089844 L 251.585938 251.796875 C 256.460938 249.949219 261.300781 247.335938 265.992188 244.015625 C 269.152344 241.785156 272.332031 239.15625 275.453125 236.1875 C 277.101562 234.605469 278.699219 232.964844 280.203125 231.316406 C 281.511719 229.882812 282.804688 228.382812 284.046875 226.851562 C 284.164062 226.707031 284.28125 226.574219 284.378906 226.4375 C 284.394531 226.40625 284.417969 226.378906 284.441406 226.347656 C 284.785156 225.9375 285.109375 225.507812 285.4375 225.085938 C 286.6875 223.46875 287.875 221.789062 289.078125 219.929688 C 290.109375 218.335938 291.136719 216.601562 292.113281 214.789062 C 293.996094 211.308594 295.597656 207.640625 296.882812 203.890625 C 298.199219 200.066406 299.171875 196.160156 299.777344 192.285156 C 300.0625 190.472656 300.269531 188.644531 300.398438 186.855469 C 300.6875 182.8125 300.570312 178.808594 300.074219 174.953125 C 299.84375 173.082031 299.507812 171.207031 299.074219 169.375 C 296.582031 158.777344 291.054688 149.738281 283.082031 143.230469 C 277.269531 138.480469 270.484375 135.308594 262.921875 133.796875 C 260.445312 133.300781 257.867188 132.988281 255.269531 132.863281 C 253.597656 132.785156 251.84375 132.792969 250.058594 132.878906 C 249.914062 132.886719 249.820312 132.890625 249.722656 132.894531 L 249.5625 132.90625 C 245.714844 133.121094 241.75 133.761719 237.800781 134.804688 C 236.09375 135.257812 234.335938 135.804688 232.582031 136.433594 C 228.839844 137.785156 225.199219 139.46875 221.773438 141.445312 C 220.15625 142.363281 218.546875 143.363281 216.976562 144.449219 C 216.574219 144.707031 216.273438 144.921875 216.003906 145.125 C 213.902344 146.601562 211.847656 148.230469 209.84375 150 C 209.09375 150.648438 208.335938 151.347656 207.582031 152.078125 C 206.089844 153.5 204.628906 155.003906 203.234375 156.574219 C 202.5 157.402344 201.761719 158.261719 201.058594 159.128906 L 200.652344 159.628906 C 199.210938 161.417969 197.914062 163.105469 196.691406 164.78125 C 195.914062 165.816406 195.117188 166.945312 194.230469 168.246094 C 192.898438 170.199219 191.597656 172.25 190.371094 174.335938 L 189.964844 175.046875 C 189.777344 175.378906 189.589844 175.707031 189.402344 176.03125 C 188.378906 177.878906 187.503906 179.59375 186.726562 181.277344 C 184.898438 185.164062 183.496094 189.023438 182.570312 192.738281 C 182.34375 193.566406 182.171875 194.382812 182.027344 195.089844 Z M 251.316406 254.890625 C 250.992188 254.890625 250.660156 254.777344 250.402344 254.5625 L 179.527344 196.792969 C 179.113281 196.457031 178.917969 195.917969 179.015625 195.394531 C 179.191406 194.480469 179.433594 193.265625 179.761719 192.011719 C 180.734375 188.136719 182.195312 184.101562 184.097656 180.046875 C 184.90625 178.316406 185.8125 176.535156 186.878906 174.617188 C 187.070312 174.28125 187.261719 173.945312 187.453125 173.609375 L 187.863281 172.886719 C 189.136719 170.722656 190.46875 168.621094 191.839844 166.609375 C 192.75 165.277344 193.570312 164.121094 194.363281 163.058594 C 195.601562 161.355469 196.929688 159.632812 198.410156 157.796875 L 198.816406 157.300781 C 199.546875 156.402344 200.304688 155.507812 201.074219 154.644531 C 202.515625 153.015625 204.03125 151.453125 205.574219 149.988281 C 206.359375 149.226562 207.152344 148.496094 207.941406 147.8125 C 210.011719 145.984375 212.15625 144.292969 214.296875 142.785156 C 214.582031 142.578125 214.929688 142.328125 215.355469 142.042969 C 216.976562 140.929688 218.664062 139.875 220.335938 138.933594 C 223.902344 136.875 227.699219 135.113281 231.601562 133.703125 C 233.4375 133.046875 235.273438 132.476562 237.0625 132.003906 C 241.199219 130.910156 245.359375 130.238281 249.410156 130.011719 L 249.554688 130.003906 C 249.6875 129.996094 249.820312 129.988281 249.953125 129.984375 C 251.753906 129.894531 253.636719 129.886719 255.402344 129.96875 C 258.152344 130.097656 260.875 130.429688 263.492188 130.957031 C 271.519531 132.5625 278.726562 135.9375 284.910156 140.988281 C 293.382812 147.902344 299.25 157.484375 301.886719 168.707031 C 302.34375 170.644531 302.703125 172.621094 302.945312 174.589844 C 303.472656 178.628906 303.582031 182.824219 303.289062 187.058594 C 303.152344 188.929688 302.933594 190.84375 302.632812 192.738281 C 302 196.777344 300.988281 200.847656 299.621094 204.828125 C 298.285156 208.730469 296.617188 212.542969 294.660156 216.167969 C 293.640625 218.050781 292.582031 219.847656 291.511719 221.5 C 290.261719 223.433594 289.023438 225.179688 287.738281 226.839844 C 287.402344 227.28125 287.058594 227.726562 286.699219 228.167969 C 286.574219 228.335938 286.433594 228.511719 286.300781 228.671875 C 285.015625 230.253906 283.683594 231.796875 282.347656 233.265625 C 280.796875 234.964844 279.152344 236.65625 277.449219 238.285156 C 274.222656 241.351562 270.929688 244.074219 267.660156 246.386719 C 262.519531 250.023438 257.1875 252.851562 251.808594 254.796875 C 251.644531 254.863281 251.484375 254.890625 251.316406 254.890625 " fill-opacity="1" fill-rule="nonzero"/></g><path fill="#ffffff" d="M 196.550781 231.140625 C 198.746094 227.183594 215.882812 224.558594 215.882812 224.558594 C 215.882812 224.558594 217.480469 241.523438 213.648438 245 C 192.046875 264.53125 189.007812 280.246094 183.925781 286.527344 C 180.800781 290.386719 169.691406 281.324219 169.691406 281.324219 C 169.691406 281.324219 158.574219 272.269531 161.71875 268.421875 C 166.828125 262.167969 182.421875 256.613281 196.550781 231.140625 " fill-opacity="1" fill-rule="nonzero"/><path fill="#231f1f" d="M 214.570312 226.246094 C 207.847656 227.402344 198.996094 229.710938 197.820312 231.84375 C 187.609375 250.25 176.601562 258.441406 169.320312 263.859375 C 166.460938 265.992188 164.203125 267.679688 162.839844 269.34375 C 162.707031 269.5 162.5625 269.753906 162.613281 270.273438 C 162.894531 272.988281 167.664062 277.808594 170.597656 280.199219 C 172.597656 281.824219 178.460938 286.035156 181.644531 286.035156 C 182.460938 286.035156 182.710938 285.726562 182.804688 285.613281 C 184.167969 283.925781 185.425781 281.40625 187.015625 278.21875 C 191.035156 270.171875 197.109375 258.003906 212.675781 243.921875 C 214.785156 242.015625 215.050781 232.929688 214.570312 226.246094 Z M 181.644531 288.933594 C 176.863281 288.933594 169.585938 283.113281 168.773438 282.449219 C 167.902344 281.734375 160.21875 275.351562 159.738281 270.566406 C 159.617188 269.398438 159.917969 268.339844 160.597656 267.503906 C 162.1875 265.5625 164.570312 263.792969 167.59375 261.539062 C 174.675781 256.269531 185.378906 248.304688 195.285156 230.433594 C 197.703125 226.082031 212.6875 223.585938 215.664062 223.128906 C 216.058594 223.0625 216.457031 223.175781 216.773438 223.417969 C 217.089844 223.667969 217.285156 224.027344 217.324219 224.425781 C 217.601562 227.378906 218.785156 242.304688 214.617188 246.074219 C 199.460938 259.789062 193.53125 271.660156 189.609375 279.515625 C 187.9375 282.859375 186.617188 285.503906 185.054688 287.4375 C 184.5 288.121094 183.457031 288.933594 181.644531 288.933594 " fill-opacity="1" fill-rule="nonzero"/><path fill="#231f1f" d="M 195.78125 239.722656 L 205.238281 247.433594 C 189.570312 263.378906 185.730469 274.625 181.664062 279.644531 C 179.074219 282.835938 172.695312 277.632812 172.695312 277.632812 C 172.695312 277.632812 166.308594 272.429688 168.90625 269.25 C 172.941406 264.3125 183.519531 257.78125 195.78125 239.722656 " fill-opacity="1" fill-rule="nonzero"/><path fill="#ffffff" d="M 220.820312 164.210938 C 220.820312 172.636719 227.648438 179.46875 236.070312 179.46875 C 244.488281 179.46875 251.316406 172.636719 251.316406 164.210938 C 251.316406 155.785156 244.488281 148.957031 236.070312 148.957031 C 227.648438 148.957031 220.820312 155.785156 220.820312 164.210938 " fill-opacity="1" fill-rule="nonzero"/><path fill="#231f1f" d="M 236.070312 150.402344 C 228.464844 150.402344 222.269531 156.597656 222.269531 164.210938 C 222.269531 171.824219 228.464844 178.019531 236.070312 178.019531 C 243.679688 178.019531 249.867188 171.824219 249.867188 164.210938 C 249.867188 156.597656 243.679688 150.402344 236.070312 150.402344 Z M 236.070312 180.917969 C 226.867188 180.917969 219.375 173.425781 219.375 164.210938 C 219.375 155 226.867188 147.507812 236.070312 147.507812 C 245.269531 147.507812 252.761719 155 252.761719 164.210938 C 252.761719 173.425781 245.269531 180.917969 236.070312 180.917969 " fill-opacity="1" fill-rule="nonzero"/><path fill="#ffffff" d="M 254.089844 156.582031 L 262.4375 146.90625 L 266.558594 149.519531 L 255.6875 158.167969 L 254.089844 156.582031 " fill-opacity="1" fill-rule="nonzero"/><path fill="#ffffff" d="M 259.300781 166.042969 L 273.042969 159.1875 L 275.167969 163.921875 L 260.113281 167.878906 L 259.300781 166.042969 " fill-opacity="1" fill-rule="nonzero"/><path fill="#ffffff" d="M 233.871094 184.300781 L 224.992188 197.820312 L 223.449219 192.402344 L 231.359375 183.332031 L 233.871094 184.300781 " fill-opacity="1" fill-rule="nonzero"/><path fill="#ffffff" d="M 225.765625 180.625 L 214.957031 183.332031 L 216.5625 186.617188 Z M 225.765625 180.625 " fill-opacity="1" fill-rule="nonzero"/><path fill="#ffffff" d="M 244.859375 182.46875 L 247.730469 194.046875 L 242.792969 189.878906 Z M 244.859375 182.46875 " fill-opacity="1" fill-rule="nonzero"/><path fill="#ffffff" d="M 254.324219 175.609375 L 268.992188 172.902344 L 268.992188 179.46875 L 254.324219 175.609375 " fill-opacity="1" fill-rule="nonzero"/><path fill="#ffffff" d="M 198.554688 195.679688 C 198.554688 195.679688 198.359375 206.394531 192.597656 217.699219 C 190.132812 222.535156 186.648438 227.484375 181.714844 231.75 L 166.394531 244.234375 C 149.160156 257.480469 127.695312 253.441406 127.695312 253.441406 L 130.125 247.363281 L 160.101562 221.34375 L 160.335938 221.132812 L 176.433594 208.820312 L 192.117188 196.832031 L 198.554688 195.679688 " fill-opacity="1" fill-rule="nonzero"/><path fill="#231f1f" d="M 196.988281 197.429688 C 196.664062 200.878906 195.488281 208.839844 191.308594 217.039062 C 188.59375 222.375 185.042969 226.957031 180.765625 230.648438 L 165.480469 243.105469 C 155.308594 250.921875 143.578125 252.574219 135.539062 252.574219 C 133.066406 252.574219 131.050781 252.410156 129.726562 252.261719 L 131.339844 248.226562 L 161.253906 222.257812 L 192.714844 198.199219 Z M 135.53125 255.472656 L 135.539062 255.472656 C 144.03125 255.472656 156.425781 253.714844 167.277344 245.382812 L 182.625 232.867188 C 187.214844 228.90625 191 224.027344 193.890625 218.359375 C 199.730469 206.886719 199.992188 196.15625 200.003906 195.703125 C 200.007812 195.273438 199.824219 194.859375 199.496094 194.578125 C 199.164062 194.296875 198.730469 194.179688 198.296875 194.253906 L 191.859375 195.40625 C 191.632812 195.449219 191.421875 195.542969 191.238281 195.6875 L 159.460938 219.988281 C 159.429688 220.003906 159.40625 220.027344 159.378906 220.050781 L 159.148438 220.253906 L 129.175781 246.269531 C 129 246.421875 128.867188 246.613281 128.78125 246.824219 L 126.351562 252.902344 C 126.1875 253.304688 126.21875 253.753906 126.425781 254.136719 C 126.632812 254.515625 127 254.78125 127.425781 254.863281 C 127.554688 254.890625 130.691406 255.472656 135.53125 255.472656 " fill-opacity="1" fill-rule="nonzero"/><path fill="#231f1f" d="M 179.070312 158.214844 L 179.472656 158.714844 C 180.875 160.441406 182.210938 162.171875 183.488281 163.929688 C 184.347656 165.082031 185.171875 166.25 185.976562 167.421875 C 187.371094 169.472656 188.671875 171.535156 189.882812 173.597656 C 190.214844 174.179688 190.542969 174.75 190.867188 175.324219 C 191.859375 177.105469 192.773438 178.878906 193.59375 180.667969 C 195.425781 184.554688 196.867188 188.472656 197.84375 192.390625 C 198.132812 193.484375 198.359375 194.578125 198.566406 195.667969 L 127.695312 253.441406 C 122.363281 251.507812 117.164062 248.726562 112.183594 245.203125 C 108.871094 242.863281 105.664062 240.191406 102.5625 237.242188 C 100.921875 235.667969 99.308594 234.015625 97.734375 232.289062 C 96.402344 230.832031 95.105469 229.328125 93.835938 227.769531 C 93.703125 227.605469 93.570312 227.445312 93.453125 227.277344 C 93.09375 226.839844 92.753906 226.394531 92.414062 225.957031 C 91.09375 224.246094 89.863281 222.488281 88.714844 220.71875 C 87.601562 218.996094 86.578125 217.242188 85.621094 215.480469 C 83.660156 211.851562 82.042969 208.121094 80.757812 204.359375 C 79.410156 200.425781 78.417969 196.460938 77.804688 192.503906 C 77.503906 190.652344 77.296875 188.796875 77.164062 186.953125 C 76.875 182.824219 76.984375 178.738281 77.5 174.769531 C 77.742188 172.820312 78.082031 170.914062 78.53125 169.039062 C 81.007812 158.492188 86.5 149.054688 95.011719 142.113281 C 101.148438 137.101562 108.253906 133.886719 115.800781 132.375 C 118.382812 131.859375 121.011719 131.542969 123.675781 131.414062 C 125.445312 131.332031 127.230469 131.34375 129.023438 131.433594 C 129.1875 131.4375 129.347656 131.449219 129.515625 131.457031 C 133.527344 131.683594 137.558594 132.34375 141.578125 133.402344 C 143.359375 133.878906 145.144531 134.433594 146.914062 135.066406 C 150.667969 136.421875 154.371094 138.125 157.960938 140.1875 C 159.621094 141.128906 161.253906 142.152344 162.851562 143.253906 C 163.199219 143.480469 163.546875 143.71875 163.878906 143.972656 C 166.027344 145.480469 168.105469 147.128906 170.117188 148.910156 C 170.910156 149.59375 171.683594 150.304688 172.433594 151.035156 C 173.957031 152.480469 175.425781 154.007812 176.859375 155.613281 C 177.609375 156.460938 178.34375 157.328125 179.070312 158.214844 " fill-opacity="1" fill-rule="nonzero"/><g clip-path="url(#512b8fb27b)"><path fill="#231f1f" d="M 196.980469 195.089844 L 127.421875 251.796875 C 122.546875 249.949219 117.707031 247.335938 113.015625 244.015625 C 109.855469 241.785156 106.675781 239.15625 103.558594 236.1875 C 101.90625 234.605469 100.308594 232.964844 98.804688 231.316406 C 97.496094 229.882812 96.203125 228.382812 94.960938 226.851562 C 94.84375 226.707031 94.726562 226.574219 94.628906 226.4375 C 94.613281 226.40625 94.589844 226.378906 94.566406 226.347656 C 94.222656 225.9375 93.898438 225.507812 93.570312 225.085938 C 92.320312 223.46875 91.132812 221.789062 89.929688 219.929688 C 88.898438 218.335938 87.875 216.601562 86.894531 214.789062 C 85.011719 211.308594 83.410156 207.640625 82.125 203.890625 C 80.808594 200.066406 79.835938 196.160156 79.230469 192.285156 C 78.945312 190.472656 78.738281 188.644531 78.609375 186.855469 C 78.320312 182.8125 78.4375 178.808594 78.933594 174.953125 C 79.167969 173.082031 79.503906 171.207031 79.9375 169.375 C 82.425781 158.777344 87.953125 149.738281 95.925781 143.230469 C 101.738281 138.480469 108.523438 135.308594 116.085938 133.796875 C 118.5625 133.300781 121.140625 132.988281 123.738281 132.863281 C 125.414062 132.785156 127.167969 132.792969 128.949219 132.878906 C 129.09375 132.886719 129.1875 132.890625 129.285156 132.894531 L 129.449219 132.90625 C 133.292969 133.121094 137.257812 133.761719 141.207031 134.804688 C 142.914062 135.257812 144.675781 135.804688 146.429688 136.433594 C 150.167969 137.785156 153.808594 139.46875 157.238281 141.445312 C 158.851562 142.363281 160.460938 143.363281 162.03125 144.449219 C 162.4375 144.707031 162.738281 144.921875 163.003906 145.125 C 165.105469 146.601562 167.160156 148.230469 169.164062 150 C 169.914062 150.648438 170.675781 151.347656 171.425781 152.078125 C 172.921875 153.5 174.378906 155.003906 175.773438 156.574219 C 176.511719 157.402344 177.246094 158.261719 177.953125 159.128906 L 178.355469 159.628906 C 179.796875 161.417969 181.09375 163.105469 182.316406 164.78125 C 183.09375 165.816406 183.890625 166.945312 184.777344 168.246094 C 186.109375 170.199219 187.410156 172.25 188.640625 174.335938 L 189.042969 175.046875 C 189.230469 175.378906 189.421875 175.707031 189.605469 176.03125 C 190.628906 177.878906 191.503906 179.59375 192.28125 181.277344 C 194.109375 185.164062 195.511719 189.023438 196.4375 192.738281 C 196.664062 193.566406 196.835938 194.382812 196.980469 195.089844 Z M 127.695312 254.890625 C 128.019531 254.890625 128.347656 254.777344 128.609375 254.5625 L 199.484375 196.792969 C 199.894531 196.457031 200.089844 195.917969 199.992188 195.394531 C 199.820312 194.480469 199.574219 193.265625 199.246094 192.011719 C 198.273438 188.136719 196.8125 184.101562 194.910156 180.046875 C 194.105469 178.316406 193.195312 176.535156 192.128906 174.617188 C 191.9375 174.28125 191.746094 173.945312 191.558594 173.609375 L 191.144531 172.886719 C 189.871094 170.722656 188.539062 168.621094 187.167969 166.609375 C 186.257812 165.277344 185.4375 164.121094 184.644531 163.058594 C 183.40625 161.355469 182.078125 159.632812 180.597656 157.796875 L 180.191406 157.300781 C 179.460938 156.402344 178.703125 155.507812 177.933594 154.644531 C 176.492188 153.015625 174.976562 151.453125 173.4375 149.988281 C 172.648438 149.226562 171.855469 148.496094 171.066406 147.8125 C 168.996094 145.984375 166.851562 144.292969 164.710938 142.785156 C 164.425781 142.578125 164.082031 142.328125 163.652344 142.042969 C 162.03125 140.929688 160.347656 139.875 158.671875 138.933594 C 155.105469 136.875 151.308594 135.113281 147.40625 133.703125 C 145.570312 133.046875 143.734375 132.476562 141.945312 132.003906 C 137.808594 130.910156 133.652344 130.238281 129.597656 130.011719 L 129.453125 130.003906 C 129.320312 129.996094 129.1875 129.988281 129.054688 129.984375 C 127.253906 129.894531 125.371094 129.886719 123.605469 129.96875 C 120.855469 130.097656 118.136719 130.429688 115.519531 130.957031 C 107.488281 132.5625 100.28125 135.9375 94.097656 140.988281 C 85.628906 147.902344 79.757812 157.484375 77.121094 168.707031 C 76.664062 170.644531 76.304688 172.621094 76.0625 174.589844 C 75.535156 178.628906 75.425781 182.824219 75.722656 187.058594 C 75.855469 188.929688 76.074219 190.84375 76.375 192.738281 C 77.007812 196.777344 78.019531 200.847656 79.386719 204.828125 C 80.722656 208.730469 82.390625 212.542969 84.347656 216.167969 C 85.367188 218.050781 86.425781 219.847656 87.496094 221.5 C 88.746094 223.433594 89.988281 225.179688 91.273438 226.839844 C 91.609375 227.28125 91.949219 227.726562 92.308594 228.167969 C 92.4375 228.335938 92.574219 228.511719 92.707031 228.671875 C 93.992188 230.253906 95.324219 231.796875 96.660156 233.265625 C 98.214844 234.964844 99.859375 236.65625 101.558594 238.285156 C 104.785156 241.351562 108.078125 244.074219 111.351562 246.386719 C 116.492188 250.023438 121.824219 252.851562 127.203125 254.796875 C 127.363281 254.863281 127.527344 254.890625 127.695312 254.890625 " fill-opacity="1" fill-rule="nonzero"/></g><path fill="#ffffff" d="M 182.457031 231.140625 C 180.261719 227.183594 163.125 224.558594 163.125 224.558594 C 163.125 224.558594 161.527344 241.523438 165.359375 245 C 186.960938 264.53125 190 280.246094 195.082031 286.527344 C 198.210938 290.386719 209.320312 281.324219 209.320312 281.324219 C 209.320312 281.324219 220.433594 272.269531 217.292969 268.421875 C 212.179688 262.167969 196.589844 256.613281 182.457031 231.140625 " fill-opacity="1" fill-rule="nonzero"/><path fill="#231f1f" d="M 164.4375 226.246094 C 171.160156 227.402344 180.011719 229.710938 181.1875 231.84375 C 191.402344 250.25 202.40625 258.441406 209.691406 263.859375 C 212.550781 265.992188 214.808594 267.679688 216.167969 269.34375 C 216.300781 269.5 216.445312 269.753906 216.394531 270.273438 C 216.117188 272.988281 211.34375 277.808594 208.410156 280.199219 C 206.414062 281.824219 200.546875 286.035156 197.363281 286.035156 C 196.546875 286.035156 196.296875 285.726562 196.207031 285.613281 C 194.839844 283.925781 193.582031 281.40625 191.992188 278.21875 C 187.972656 270.171875 181.898438 258.003906 166.332031 243.921875 C 164.226562 242.015625 163.957031 232.929688 164.4375 226.246094 Z M 197.363281 288.933594 C 202.144531 288.933594 209.421875 283.113281 210.234375 282.449219 C 211.109375 281.734375 218.789062 275.351562 219.273438 270.566406 C 219.390625 269.398438 219.089844 268.339844 218.410156 267.503906 C 216.820312 265.5625 214.4375 263.792969 211.414062 261.539062 C 204.335938 256.269531 193.628906 248.304688 183.722656 230.433594 C 181.304688 226.082031 166.320312 223.585938 163.34375 223.128906 C 162.953125 223.0625 162.550781 223.175781 162.234375 223.417969 C 161.921875 223.667969 161.722656 224.027344 161.683594 224.425781 C 161.40625 227.378906 160.222656 242.304688 164.394531 246.074219 C 179.550781 259.789062 185.476562 271.660156 189.398438 279.515625 C 191.070312 282.859375 192.390625 285.503906 193.953125 287.4375 C 194.507812 288.121094 195.550781 288.933594 197.363281 288.933594 " fill-opacity="1" fill-rule="nonzero"/><path fill="#231f1f" d="M 183.226562 239.722656 L 173.773438 247.433594 C 189.4375 263.378906 193.277344 274.625 197.347656 279.644531 C 199.933594 282.835938 206.3125 277.632812 206.3125 277.632812 C 206.3125 277.632812 212.699219 272.429688 210.101562 269.25 C 206.066406 264.3125 195.488281 257.78125 183.226562 239.722656 " fill-opacity="1" fill-rule="nonzero"/><path fill="#ffffff" d="M 158.1875 164.210938 C 158.1875 172.636719 151.359375 179.46875 142.9375 179.46875 C 134.519531 179.46875 127.695312 172.636719 127.695312 164.210938 C 127.695312 155.785156 134.519531 148.957031 142.9375 148.957031 C 151.359375 148.957031 158.1875 155.785156 158.1875 164.210938 " fill-opacity="1" fill-rule="nonzero"/><path fill="#231f1f" d="M 142.9375 150.402344 C 150.542969 150.402344 156.738281 156.597656 156.738281 164.210938 C 156.738281 171.824219 150.542969 178.019531 142.9375 178.019531 C 135.328125 178.019531 129.140625 171.824219 129.140625 164.210938 C 129.140625 156.597656 135.328125 150.402344 142.9375 150.402344 Z M 142.9375 180.917969 C 152.140625 180.917969 159.632812 173.425781 159.632812 164.210938 C 159.632812 155 152.140625 147.507812 142.9375 147.507812 C 133.738281 147.507812 126.246094 155 126.246094 164.210938 C 126.246094 173.425781 133.738281 180.917969 142.9375 180.917969 " fill-opacity="1" fill-rule="nonzero"/><path fill="#ffffff" d="M 124.921875 156.582031 L 116.570312 146.90625 L 112.449219 149.519531 L 123.324219 158.167969 L 124.921875 156.582031 " fill-opacity="1" fill-rule="nonzero"/><path fill="#ffffff" d="M 119.710938 166.042969 L 105.964844 159.1875 L 103.839844 163.921875 L 118.894531 167.878906 L 119.710938 166.042969 " fill-opacity="1" fill-rule="nonzero"/><path fill="#ffffff" d="M 145.136719 184.300781 L 154.019531 197.820312 L 155.558594 192.402344 L 147.648438 183.332031 L 145.136719 184.300781 " fill-opacity="1" fill-rule="nonzero"/><path fill="#ffffff" d="M 153.242188 180.625 L 164.050781 183.332031 L 162.449219 186.617188 Z M 153.242188 180.625 " fill-opacity="1" fill-rule="nonzero"/><path fill="#ffffff" d="M 134.148438 182.46875 L 131.277344 194.046875 L 136.214844 189.878906 Z M 134.148438 182.46875 " fill-opacity="1" fill-rule="nonzero"/><path fill="#ffffff" d="M 124.683594 175.609375 L 110.019531 172.902344 L 110.019531 179.46875 L 124.683594 175.609375 " fill-opacity="1" fill-rule="nonzero"/><g clip-path="url(#4f86c4af95)"><path fill="#ffffff" d="M 0 45.242188 L 375 45.242188 L 375 120.242188 L 0 120.242188 Z M 0 45.242188 " fill-opacity="1" fill-rule="nonzero"/></g><g fill="#231f1f" fill-opacity="1"><g transform="translate(92.395562, 119.563454)"><g><path d="M -11.140625 -26.734375 C -9.242188 -28.691406 -7.523438 -29.984375 -5.984375 -30.609375 C -4.503906 -31.179688 -2.957031 -31.269531 -1.34375 -30.875 C 0.257812 -30.488281 1.710938 -29.664062 3.015625 -28.40625 C 5.054688 -26.414062 6.066406 -24.21875 6.046875 -21.8125 C 6.035156 -19.40625 4.832031 -16.96875 2.4375 -14.5 L 0.21875 -12.21875 L 6.21875 -6.390625 L 1.671875 -1.71875 L -17.421875 -20.28125 Z M -1.4375 -23.65625 C -2.21875 -24.414062 -3.03125 -24.71875 -3.875 -24.5625 C -4.726562 -24.414062 -5.679688 -23.800781 -6.734375 -22.71875 L -8.59375 -20.796875 L -4.046875 -16.375 L -2.015625 -18.46875 C -1.035156 -19.476562 -0.492188 -20.398438 -0.390625 -21.234375 C -0.285156 -22.066406 -0.632812 -22.875 -1.4375 -23.65625 Z M -1.4375 -23.65625 "/></g></g></g><g fill="#231f1f" fill-opacity="1"><g transform="translate(109.157533, 102.992666)"><g><path d="M -8.84375 -26.765625 L 7.328125 -5.59375 L 1.90625 -1.453125 L -14.265625 -22.625 Z M -8.84375 -26.765625 "/></g></g></g><g fill="#231f1f" fill-opacity="1"><g transform="translate(118.543257, 95.076162)"><g><path d="M 7.875 -4.1875 L 2.125 -1.125 L -10.359375 -24.65625 L -5.171875 -27.40625 L 11.875 -17.390625 L 3.734375 -32.140625 L 9.484375 -35.1875 L 21.96875 -11.65625 L 16.75 -8.890625 L 0.109375 -18.46875 Z M 7.875 -4.1875 "/></g></g></g><g fill="#231f1f" fill-opacity="1"><g transform="translate(142.714919, 82.043533)"><g><path d="M 15.078125 -3.265625 C 12.554688 -2.628906 10.097656 -2.644531 7.703125 -3.3125 C 5.304688 -3.988281 3.234375 -5.203125 1.484375 -6.953125 C -0.265625 -8.710938 -1.457031 -10.832031 -2.09375 -13.3125 C -2.738281 -15.863281 -2.695312 -18.304688 -1.96875 -20.640625 C -1.238281 -22.972656 0.0351562 -24.976562 1.859375 -26.65625 C 3.691406 -28.332031 5.851562 -29.488281 8.34375 -30.125 C 10.25 -30.613281 12.203125 -30.6875 14.203125 -30.34375 C 16.210938 -30 18.046875 -29.296875 19.703125 -28.234375 C 21.359375 -27.171875 22.648438 -25.851562 23.578125 -24.28125 L 16.171875 -22.40625 C 15.296875 -23.320312 14.296875 -23.941406 13.171875 -24.265625 C 12.054688 -24.597656 10.882812 -24.609375 9.65625 -24.296875 C 8.300781 -23.953125 7.171875 -23.3125 6.265625 -22.375 C 5.359375 -21.4375 4.75 -20.3125 4.4375 -19 C 4.132812 -17.695312 4.15625 -16.359375 4.5 -14.984375 C 4.863281 -13.554688 5.488281 -12.328125 6.375 -11.296875 C 7.257812 -10.273438 8.320312 -9.554688 9.5625 -9.140625 C 10.800781 -8.722656 12.132812 -8.695312 13.5625 -9.0625 C 15.09375 -9.445312 16.3125 -10.140625 17.21875 -11.140625 C 18.125 -12.140625 18.613281 -13.351562 18.6875 -14.78125 L 10.96875 -12.828125 L 9.625 -18.09375 L 24.96875 -22 L 25.34375 -20.53125 C 25.945312 -18.15625 25.957031 -15.769531 25.375 -13.375 C 24.789062 -10.988281 23.625 -8.882812 21.875 -7.0625 C 20.132812 -5.25 17.867188 -3.984375 15.078125 -3.265625 Z M 15.078125 -3.265625 "/></g></g></g><g fill="#231f1f" fill-opacity="1"><g transform="translate(173.148941, 75.227814)"><g/></g></g><g fill="#231f1f" fill-opacity="1"><g transform="translate(184.959149, 73.982631)"><g><path d="M 13.296875 -25.765625 C 16.003906 -25.566406 18.097656 -25.070312 19.578125 -24.28125 C 20.960938 -23.507812 22.023438 -22.382812 22.765625 -20.90625 C 23.503906 -19.425781 23.804688 -17.785156 23.671875 -15.984375 C 23.460938 -13.140625 22.429688 -10.945312 20.578125 -9.40625 C 18.722656 -7.875 16.082031 -7.226562 12.65625 -7.46875 L 9.5 -7.703125 L 8.90625 0.640625 L 2.40625 0.171875 L 4.328125 -26.40625 Z M 17.171875 -16.34375 C 17.242188 -17.425781 16.953125 -18.238281 16.296875 -18.78125 C 15.640625 -19.332031 14.554688 -19.664062 13.046875 -19.78125 L 10.390625 -19.96875 L 9.9375 -13.65625 L 12.84375 -13.453125 C 14.238281 -13.347656 15.285156 -13.519531 15.984375 -13.96875 C 16.691406 -14.425781 17.085938 -15.21875 17.171875 -16.34375 Z M 17.171875 -16.34375 "/></g></g></g><g fill="#231f1f" fill-opacity="1"><g transform="translate(208.088296, 75.247566)"><g><path d="M 4.890625 -11.796875 C 5.671875 -14.398438 6.953125 -16.578125 8.734375 -18.328125 C 10.523438 -20.078125 12.625 -21.242188 15.03125 -21.828125 C 17.4375 -22.421875 19.914062 -22.332031 22.46875 -21.5625 C 24.90625 -20.832031 26.984375 -19.578125 28.703125 -17.796875 C 30.421875 -16.015625 31.582031 -13.941406 32.1875 -11.578125 C 32.800781 -9.210938 32.742188 -6.832031 32.015625 -4.4375 C 31.273438 -1.957031 30.007812 0.125 28.21875 1.8125 C 26.425781 3.507812 24.347656 4.644531 21.984375 5.21875 C 19.617188 5.789062 17.226562 5.71875 14.8125 5 C 12.425781 4.269531 10.34375 3.054688 8.5625 1.359375 C 6.789062 -0.335938 5.550781 -2.347656 4.84375 -4.671875 C 4.132812 -6.992188 4.148438 -9.367188 4.890625 -11.796875 Z M 25.4375 -6.203125 C 25.84375 -7.535156 25.921875 -8.875 25.671875 -10.21875 C 25.429688 -11.5625 24.882812 -12.734375 24.03125 -13.734375 C 23.1875 -14.742188 22.09375 -15.445312 20.75 -15.84375 C 19.425781 -16.25 18.140625 -16.269531 16.890625 -15.90625 C 15.640625 -15.539062 14.539062 -14.878906 13.59375 -13.921875 C 12.65625 -12.972656 11.984375 -11.832031 11.578125 -10.5 C 11.160156 -9.09375 11.078125 -7.722656 11.328125 -6.390625 C 11.578125 -5.054688 12.132812 -3.890625 13 -2.890625 C 13.863281 -1.898438 14.972656 -1.195312 16.328125 -0.78125 C 17.628906 -0.394531 18.90625 -0.378906 20.15625 -0.734375 C 21.414062 -1.097656 22.507812 -1.757812 23.4375 -2.71875 C 24.363281 -3.6875 25.03125 -4.847656 25.4375 -6.203125 Z M 25.4375 -6.203125 "/></g></g></g><g fill="#231f1f" fill-opacity="1"><g transform="translate(237.447887, 84.316608)"><g><path d="M 7.6875 4.515625 L 2.078125 1.21875 L 15.5625 -21.75 L 20.625 -18.78125 L 21.03125 0.984375 L 29.3125 -13.671875 L 34.9375 -10.375 L 21.453125 12.59375 L 16.359375 9.609375 L 15.78125 -9.609375 Z M 7.6875 4.515625 "/></g></g></g><g fill="#231f1f" fill-opacity="1"><g transform="translate(261.226506, 98.053277)"><g><path d="M 10.6875 11.109375 C 8.832031 9.304688 7.554688 7.207031 6.859375 4.8125 C 6.171875 2.425781 6.113281 0.03125 6.6875 -2.375 C 7.269531 -4.789062 8.453125 -6.921875 10.234375 -8.765625 C 12.066406 -10.648438 14.164062 -11.894531 16.53125 -12.5 C 18.90625 -13.113281 21.285156 -13.082031 23.671875 -12.40625 C 26.054688 -11.726562 28.171875 -10.492188 30.015625 -8.703125 C 31.429688 -7.335938 32.519531 -5.710938 33.28125 -3.828125 C 34.050781 -1.941406 34.414062 -0.015625 34.375 1.953125 C 34.34375 3.929688 33.898438 5.722656 33.046875 7.328125 L 27.5625 2.015625 C 27.875 0.785156 27.875 -0.390625 27.5625 -1.515625 C 27.257812 -2.648438 26.65625 -3.660156 25.75 -4.546875 C 24.738281 -5.515625 23.597656 -6.132812 22.328125 -6.40625 C 21.066406 -6.6875 19.796875 -6.613281 18.515625 -6.1875 C 17.242188 -5.769531 16.113281 -5.050781 15.125 -4.03125 C 14.101562 -2.96875 13.382812 -1.789062 12.96875 -0.5 C 12.550781 0.78125 12.492188 2.054688 12.796875 3.328125 C 13.097656 4.609375 13.773438 5.757812 14.828125 6.78125 C 15.960938 7.882812 17.191406 8.554688 18.515625 8.796875 C 19.835938 9.046875 21.128906 8.828125 22.390625 8.140625 L 16.671875 2.59375 L 20.453125 -1.3125 L 31.828125 9.71875 L 30.765625 10.8125 C 29.066406 12.570312 27.046875 13.828125 24.703125 14.578125 C 22.367188 15.335938 19.96875 15.445312 17.5 14.90625 C 15.03125 14.375 12.757812 13.109375 10.6875 11.109375 Z M 10.6875 11.109375 "/></g></g></g></svg>